# Blender 5.1.1
# www.blender.org
mtllib thruster_flame.mtl
o inner
v -0.176776 0.000000 2.000000
v 0.000000 -0.176777 2.000000
v -0.353553 0.000000 0.000000
v 0.000000 -0.353553 -0.000000
v 0.000000 0.176777 2.000000
v 0.176777 0.000000 2.000000
v 0.000000 0.353553 -0.000000
v 0.353553 -0.000000 -0.000000
vn 0.7057 0.7057 0.0624
vn -0.7057 0.7057 0.0624
vn 0.7057 -0.7057 0.0624
vn -0.7057 -0.7057 0.0624
vt 0.296875 1.000000
vt 0.296875 0.515625
vt 0.468750 0.515625
vt 0.468750 1.000000
s 1
usemtl m_36290a92-aca5-b71f-0180-1c2c0705defa
f 7/1/1 5/2/1 6/3/1 8/4/1
f 3/1/2 1/2/2 5/3/2 7/4/2
f 4/4/3 8/1/3 6/2/3 2/3/3
f 2/2/4 1/3/4 3/4/4 4/1/4
o mesh
v -0.218750 -0.218750 2.000000
v 0.218750 -0.218750 2.000000
v -0.437500 -0.437500 0.000000
v 0.437500 -0.437500 -0.000000
v -0.218750 0.218750 2.000000
v 0.218750 0.218750 2.000000
v -0.437500 0.437500 0.000000
v 0.437500 0.437500 -0.000000
vn -0.0000 0.9941 0.1087
vn -0.0000 -0.0000 -1.0000
vn -0.9941 -0.0000 0.1087
vn 0.9941 -0.0000 0.1087
vn -0.0000 -0.9941 0.1087
vt 0.515625 1.000000
vt 0.515625 0.562500
vt 0.765625 0.562500
vt 0.765625 1.000000
vt 0.250000 0.750000
vt 0.250000 1.000000
vt 0.000000 1.000000
vt 0.000000 0.750000
s 1
usemtl m_36290a92-aca5-b71f-0180-1c2c0705defa
f 15/5/5 13/6/5 14/7/5 16/8/5
f 12/9/6 11/10/6 15/11/6 16/12/6
f 11/5/7 9/6/7 13/7/7 15/8/7
f 12/8/8 16/5/8 14/6/8 10/7/8
f 10/6/9 9/7/9 11/8/9 12/5/9
